<mxfile host="app.diagrams.net" modified="2023-09-08T02:19:07.215Z" agent="Mozilla/5.0 (Windows NT 10.0; Win64; x64) AppleWebKit/537.36 (KHTML, like Gecko) Chrome/116.0.0.0 Safari/537.36" version="21.6.9" etag="kzKKRKvRL5tyimL8QPVG" type="github">
  <diagram name="PÃ¡gina-1" id="35vXxmRq0thYMW39m7bS">
    <mxGraphModel>
      <root>
        <mxCell id="0" />
        <mxCell id="1" parent="0" />
      </root>
    </mxGraphModel>
  </diagram>
</mxfile>
